<svg width="184" height="36" fill="none" xmlns="http://www.w3.org/2000/svg"><path fill-rule="evenodd" clip-rule="evenodd" d="M9.44 4.78h-1.4c-2.14 0-4.2 1.51-4.2 5.89 0 4.23 1.9 5.6 4.2 5.6h1.4V4.77zm-2.2 13.84L3.05 28.7H0l4.6-10.78C2.44 16.74 1 14.6 1 10.67c0-5.52 3.26-8.28 7.13-8.28h3.95V28.7H9.44V18.62h-2.2zm52.5.75c0-5.93 1.97-9.71 5.8-9.71 1.47 0 2.31.45 3.02.97l-.35 2.78c-.68-.68-1.66-1.32-2.7-1.32-1.82 0-3.12 2.37-3.12 7.13 0 4.73.98 7.43 3.03 7.43a3.8 3.8 0 002.75-1.16l.59 2.17a4.58 4.58 0 01-3.41 1.43c-3.5 0-5.62-3.27-5.62-9.72zm-7.41.04v9.42h-2.54V9.92h2.54v8.74l3.92-8.74h2.57l-4.06 8.89 4.65 10.02h-2.77l-4.31-9.42zM40.4 17.65h4.19c0-3.23-.46-5.6-1.92-5.6-1.56 0-2.11 2.22-2.27 5.6zm2.79 11.44c-3.38 0-5.46-3.12-5.46-8.93 0-6.08 1.47-10.5 4.94-10.5 2.73 0 4.51 2.36 4.51 8.77v1.62h-6.82c0 4.27 1.04 6.52 3.06 6.52 1.43 0 2.56-.75 3.21-1.27l.59 2.25a5.9 5.9 0 01-4.03 1.54zm-10.78-16.8h-2.83v.33c0 3.98-.16 9.8-1.53 13.8h4.36V12.28zm3.8 20.25h-2.28v-3.71h-7.01v3.7h-2.27v-6.1h1c1.5-4.02 1.66-9.87 1.66-14.9V9.92h7.6v16.5h1.3v6.12zM23.19 9.92v18.9h-2.5v-8.47h-3.76v8.48h-2.54V9.92h2.54v8.03h3.76V9.92h2.5zM86.9 1.97h-7.06V28.9h-1.66V.33h10.38V28.9H86.9V1.97zm10.05 25.8c1.06 0 1.91-.76 2.55-2.3.64-1.52.97-3.89.97-7.08 0-2.67-.28-4.73-.83-6.2-.56-1.46-1.32-2.2-2.3-2.2-.37 0-.73.12-1.07.35-.36.24-.68.54-.96.9a10.25 10.25 0 00-1.44 2.83v11.27c.33.82.74 1.44 1.22 1.84.49.4 1.11.6 1.86.6zm-.1 1.48c-.6.01-1.2-.16-1.74-.5a3.9 3.9 0 01-1.24-1.26v7.63H92.3V8.76h1.36l.13 3.32c.38-.96.87-1.82 1.5-2.58a2.88 2.88 0 014.17-.42 5.54 5.54 0 011.4 2.02c.37.86.66 1.9.86 3.11.2 1.21.3 2.55.3 4.02 0 3.7-.48 6.46-1.43 8.29-.95 1.82-2.2 2.73-3.75 2.73zm11.44-1.48c.78 0 1.43-.38 1.98-1.15.54-.78.96-1.7 1.27-2.8v-5.55h-1.79c-1.4 0-2.42.4-3.08 1.2-.67.8-1 2.07-1 3.83 0 1.44.24 2.54.72 3.32.47.77 1.1 1.15 1.9 1.15zm3.72 1.12a14.56 14.56 0 01-.4-2.72c-.4.96-.9 1.72-1.5 2.28a3.22 3.22 0 01-4.9-.7c-.7-1.02-1.06-2.45-1.06-4.29 0-2.16.47-3.79 1.42-4.9.95-1.1 2.34-1.65 4.15-1.65h1.82v-2.52c0-1.54-.23-2.66-.7-3.35a2.35 2.35 0 00-2.08-1.04c-.71 0-1.37.2-2 .58-.61.39-1.12.92-1.52 1.62l-.43-1.8a4.57 4.57 0 013.94-2.04c1.4 0 2.47.47 3.2 1.42.75.94 1.12 2.42 1.12 4.41v10.99c0 .69.03 1.39.1 2.1.06.7.15 1.24.26 1.61h-1.42zm6.2 0h-1.56V8.76h1.56v9.47l5.6-9.47h1.53l-5.5 9.35 5.9 10.78H124l-5.8-10.42v10.42zm13.5-18.57v18.57h-1.56V10.32h-3.88V8.76h9.28v1.56h-3.84zm14.02 4.55a28.17 28.17 0 01.14-2.75h-.1c-.11.44-.24.87-.4 1.3l-.5 1.3-5.44 14.17h-1.32V8.76h1.46v13.98c0 .95-.04 1.9-.14 2.84h.1c.11-.46.25-.9.4-1.34.16-.44.32-.89.5-1.34l5.44-14.14h1.36v20.13h-1.5V14.87zm6.8 14.02h-1.56V8.76h1.56v9.47l5.6-9.47h1.53l-5.5 9.35 5.9 10.78h-1.72l-5.8-10.42v10.42zm9.79 6.4a5.21 5.21 0 01-.87-.09l-.16-1.75c.13.05.28.09.45.12.16.02.35.04.58.04.57 0 1.06-.32 1.46-.94.4-.63.71-1.5.96-2.62l.13-.6-4.15-20.69h1.56l2.66 13.14a46.03 46.03 0 01.7 4.56h.1a61.2 61.2 0 01.79-4.56l2.59-13.14h1.39l-4.28 21.17c-.13.7-.3 1.36-.51 2-.2.6-.46 1.17-.78 1.7-.3.48-.68.88-1.1 1.2-.42.3-.93.45-1.53.45zm12.57-20.62a11.7 11.7 0 01-.3-1.5c-.07-.46-.16-.95-.27-1.45h-.13l.12 1.61c.03.55.04 1.18.04 1.9V28.9h-1.32V8.76h1.82l2.92 12.3a17.7 17.7 0 01.53 3.4h.13a22.97 22.97 0 01.57-3.4l2.98-12.3h1.8V28.9h-1.5V15.23c0-1.19.04-2.37.13-3.55h-.13l-.25 1.55c-.07.48-.17.96-.28 1.44l-2.78 11.83h-1.3l-2.78-11.83z" fill="#4F4F4F"/></svg>